<svg xmlns="http://www.w3.org/2000/svg" width="1000" height="620" viewBox="0 0 1000 620">
<style>text{font-family:Arial,sans-serif;fill:#111}.title{font-size:26px;font-weight:700}.node{fill:#fff;stroke:#222;stroke-width:2}.label{font-size:15px;font-weight:600;text-anchor:middle}.small{font-size:12px;text-anchor:middle}.edge{stroke:#333;stroke-width:2;fill:none;marker-end:url(#arrow)}.optional{stroke-dasharray:7 6}</style>
<defs><marker id="arrow" markerWidth="10" markerHeight="10" refX="9" refY="3" orient="auto"><path d="M0,0 L0,6 L9,3 z" fill="#333"/></marker></defs>
<text class="title" x="35" y="45">ESPressio Current Released Generation — Threads 3.1.7</text>
<rect class="node" x="35" y="110" width="180" height="62" rx="8"/><text class="label" x="125" y="140">Serializable 0.11.3</text>
<rect class="node" x="270" y="110" width="150" height="62" rx="8"/><text class="label" x="345" y="140">Units 0.2.7</text>
<rect class="node" x="475" y="110" width="160" height="62" rx="8"/><text class="label" x="555" y="140">Timing 2.2.8</text>
<rect class="node" x="690" y="110" width="170" height="62" rx="8"/><text class="label" x="775" y="140">Threads 3.1.7</text>
<path class="edge optional" d="M270 141 L215 141"/><path class="edge" d="M475 141 L420 141"/><path class="edge" d="M690 141 L635 141"/>
<rect class="node" x="690" y="250" width="170" height="62" rx="8"/><text class="label" x="775" y="280">Observable 3.0.2</text><path class="edge" d="M775 172 L775 250"/>
<rect class="node" x="690" y="390" width="170" height="62" rx="8"/><text class="label" x="775" y="420">Event 6.0.3</text><path class="edge" d="M775 390 L775 312"/>
<text class="small" x="500" y="505">Completed downstream generation: Command 1.0.3 / Security 0.4.2 → Persistence 0.3.2 / Sockets 0.7.3 / ESP-Now 0.8.3</text>
<text class="small" x="500" y="530">→ WiFi 0.2.0 → Serial 0.8.1. Serial remains terminal/downstream; Tree remains standalone.</text>
<text class="small" x="500" y="570">Solid arrows: required. Dashed arrow: opt-in Serializable representation through Units.</text>
</svg>
